<svg xmlns="http://www.w3.org/2000/svg" width="93" height="38" fill="none" viewBox="0 0 93 38"><g clip-path="url(#a)"><path fill="#1dac52" d="M0 5.659c.238-.022.479-.067.716-.067 2.613 0 5.229-.072 7.839.025 4.348.162 7.65 2.068 9.761 5.707 1.371 2.366 1.724 4.928 1.369 7.59a11.35 11.35 0 0 1-2.329 5.692c-2.149 2.704-4.99 4.186-8.572 4.3-2.798.078-5.602.042-8.405.059H0v-.173c.106-.47.235-.93.314-1.396.289-1.971.413-3.961.373-5.951v-9.787q.016-1.456-.126-2.904c-.118-1-.364-1.982-.555-2.972zm4.078 11.57v9.068c0 .352-.027.7 0 1.052.026.352.15.472.51.469 1.175 0 2.35 0 3.524-.056a7.3 7.3 0 0 0 4.506-1.805c1.433-1.262 2.287-2.85 2.807-4.613.531-1.953.674-3.983.422-5.986-.148-1.66-.67-3.27-1.53-4.72-1.467-2.442-3.628-3.804-6.634-3.846-.99-.014-1.979-.025-2.968-.045-.587 0-.637.017-.637.572zM25.67 29.213c-.484-.087-.971-.148-1.447-.265-2.01-.505-3.302-1.705-3.655-3.67-.373-2.07.385-3.736 2.293-4.838.71-.364 1.45-.674 2.21-.927.2-.061.41-.089.62-.08h3.667c.388 0 .772.072 1.16.08.202 0 .405-.08.607-.08h3.23v6.046q-.005.451.064.896c.138.837.635 1.186 1.524 1.116.144-.014.294-.039.458-.061a1.25 1.25 0 0 1-.408.837c-.29.287-.642.51-1.033.651a2.95 2.95 0 0 1-2.41-.18 2.8 2.8 0 0 1-.914-.797c-.214-.307-.37-.645-.587-1.002-.103.089-.214.175-.311.279-1.136 1.116-2.475 1.85-4.134 1.981-.026 0-.05.028-.076.042zm5.406-6.025h.02v-2.011c0-.466-.09-.559-.57-.642a7 7 0 0 0-.466-.067c-1.14-.14-2.272-.168-3.368.217-1.468.52-2.545 1.396-2.762 2.975-.067.5-.015 1.009.152 1.488s.445.916.813 1.28c.369.362.818.642 1.316.818s1.03.244 1.559.198a4.67 4.67 0 0 0 3.044-1.54.95.95 0 0 0 .253-.559c.026-.714.009-1.437.009-2.157m34.814 6.025a16 16 0 0 1-1.731-.421c-2.105-.751-3.294-2.403-3.245-4.532a4.2 4.2 0 0 1 .456-1.855 4.4 4.4 0 0 1 1.244-1.494 7.3 7.3 0 0 1 2.96-1.414q.245-.057.499-.056h3.508c.44 0 .88.07 1.321.078.223 0 .446-.078.672-.078h3.127c.018 0 .038.017.094.042v6.195q.004.39.07.775c.015.158.064.312.144.451.08.14.19.262.322.359q.2.147.445.206t.496.02c.167-.015.331-.04.516-.062a.8.8 0 0 1-.035.38.8.8 0 0 1-.214.323 2.5 2.5 0 0 1-.79.635c-.307.157-.645.25-.992.275-1.468.145-2.449-.433-3.139-1.82l-.179-.357a6.17 6.17 0 0 1-3.54 2.171c-.311.076-.629.123-.946.184zm5.614-6.002v-2.132c0-.262-.094-.455-.385-.505-1.294-.226-2.598-.327-3.875.072-1.706.53-3.059 1.728-2.9 3.753.08.88.52 1.693 1.224 2.267a3.66 3.66 0 0 0 2.545.803 4.78 4.78 0 0 0 3.118-1.53.9.9 0 0 0 .21-.31.9.9 0 0 0 .063-.364c-.003-.698.003-1.379 0-2.054m-29.018 6.002c-.493-.078-.989-.145-1.467-.234a17 17 0 0 1-3.582-1.145.63.63 0 0 1-.313-.24.58.58 0 0 1-.098-.37v-2.791q.033-.226.12-.438c.49.519.922 1.004 1.386 1.46 1.133 1.116 2.375 2.078 4.001 2.463a3.8 3.8 0 0 0 1.874.05 3.7 3.7 0 0 0 1.65-.845 2.3 2.3 0 0 0 .58-.805 2.22 2.22 0 0 0-.072-1.908 2.3 2.3 0 0 0-.64-.764 7.8 7.8 0 0 0-2.484-1.214c-1.492-.51-3.004-.982-4.404-1.741a4.35 4.35 0 0 1-1.497-1.23q.127-.02.255-.028h6.667a1 1 0 0 1 .311.036c.983.33 1.922.77 2.795 1.311a4.05 4.05 0 0 1 1.385 1.448c.327.585.495 1.238.488 1.9.038 1.639-.54 3.037-2.02 3.977a7.3 7.3 0 0 1-3.197 1.035c-.102 0-.202.04-.293.059zM93 28.973c-.86 0-1.723 0-2.584.033a2.5 2.5 0 0 1-1.2-.201 2.4 2.4 0 0 1-.94-.739c-.499-.63-.96-1.29-1.453-1.925q-2.085-2.685-4.18-5.352c-.403-.514-.38-.656.12-1.078 1.206-1.012 2.416-2.025 3.605-3.069.54-.425.943-.985 1.166-1.617a3.4 3.4 0 0 0 .096-1.957c0-.056 0-.118-.02-.193h5.129c-.194.19-.344.36-.52.505l-6.506 5.338c-.44.357-.449.438-.094.885l6.932 8.723c.152.192.293.385.449.577zm-37.426.24a10 10 0 0 1-1.142-.318 3.5 3.5 0 0 1-1.597-1.17 3.24 3.24 0 0 1-.66-1.81c-.118-1.527-.106-3.07-.141-4.59v-1.876h3.256v.35c.02 1.673.064 3.32.053 4.983 0 1.554 1.16 2.659 3.132 2.18.76-.185 1.5-.445 2.27-.676a4.8 4.8 0 0 1-1.13 1.534 4.96 4.96 0 0 1-2.793 1.346.4.4 0 0 0-.111.047z"/><path fill="#f5bb18" d="M41.403 15.758h3.432V10.76c0-.257.062-.357.35-.346q.789.031 1.579 0c.276 0 .338.092.338.332v5.015c.126 0 .226.013.326.013h3.478c.294 0 .356-.078.353-.337v-5.112h2.075c.059 0 .159.181.162.279v5.092q.108.03.22.04h1.99c.241 0 .312-.087.309-.3 0-1.604 0-3.206-.027-4.807 0-.28.082-.346.358-.34.62.019 1.24 0 1.891 0v5.446h2.328c.059 0 .162-.184.162-.279v-5.159h1.347c.88 0 .88 0 .88.837v6.585c-.125 0-.234.025-.343.025H25.885c-2.258 0-4.202-2.232-3.931-4.375s2.413-3.725 4.697-3.586c.211 0 .308.076.293.28v1.456a9 9 0 0 0-.9 0c-.365.04-.714.156-1.024.341s-.571.436-.765.73a2.2 2.2 0 0 0-.229 1.998q.166.29.423.511c.481.508 1.072.636 1.794.63 3.678-.03 7.34 0 11.033 0 .472 0 .945-.033 1.417-.072.311-.036.598-.178.807-.4a1.16 1.16 0 0 0 .02-1.602 1.28 1.28 0 0 0-.788-.4 15 15 0 0 0-1.324-.062c-1.644-.02-3.285 0-4.93-.044-1.761-.042-2.683-1.234-2.827-2.657a4.7 4.7 0 0 1 .185-2.023c.088-.29.238-.558.44-.79s.452-.422.735-.558q2.712-1.314 5.422-2.637c.1-.047.203-.086.311-.13 0 .646.015 1.263-.015 1.877 0 .106-.179.234-.293.301-1.421.74-2.85 1.468-4.272 2.202-.71.368-.986.938-.745 1.566.07.223.21.42.404.563.193.143.428.225.673.235 1.157.041 2.316.041 3.473.072.978.025 1.958.04 2.936.109 1.468.103 2.284.837 2.572 2.232a4.7 4.7 0 0 1-.024 1.94z"/><path fill="#1dac52" d="M82.243 28.906h-4.547q.291-1.162.455-2.347c.12-1.311.144-2.634.205-3.951v-10.36c0-1.2-.017-2.403-.07-3.6a9.7 9.7 0 0 0-.567-2.79c-.132-.38-.085-.461.332-.517 1.01-.137 2.02-.28 3.033-.396.375-.048.551.117.551.471v13.545c0 1.822 0 3.644.027 5.466.021 1.302.203 2.598.54 3.86q.042.16.065.323a2 2 0 0 0-.024.296"/><path fill="#f5bb18" d="M65.049 13.18v-1.968h7.301c.439-.018.876.061 1.277.23.401.17.756.425 1.036.747 1.295 1.487.855 4.302-.842 5.352a1.6 1.6 0 0 1-.763.231c-2.59.017-5.182 0-7.772 0-.064 0-.126 0-.223-.016 0-.098-.02-.193-.02-.28v-1.38c0-.255.082-.325.343-.322h5.907c.452 0 .907.017 1.36 0a.83.83 0 0 0 .49-.2c.616-.59.698-1.27.25-1.831a1.1 1.1 0 0 0-.399-.336 1.2 1.2 0 0 0-.515-.127c-.863-.017-1.726-.048-2.59-.056-1.493-.017-2.988-.017-4.485-.023zM43.77 6.105a1.3 1.3 0 0 1-.12.519c-.075.164-.185.31-.322.433a1.4 1.4 0 0 1-.475.28 1.5 1.5 0 0 1-.551.08 1.46 1.46 0 0 1-1.016-.36 1.32 1.32 0 0 1-.452-.938c.008-.362.167-.706.443-.957a1.48 1.48 0 0 1 1.025-.38c.188-.006.375.024.551.087s.338.16.474.283q.207.186.322.434t.12.52m.667-.009c.004-.178.045-.354.121-.517s.186-.31.322-.433c.137-.122.298-.218.474-.28s.363-.091.55-.084a1.48 1.48 0 0 1 1.028.381q.206.19.32.439c.077.165.117.342.12.522a1.3 1.3 0 0 1-.13.514 1.4 1.4 0 0 1-.329.426 1.45 1.45 0 0 1-1.026.352 1.5 1.5 0 0 1-.55-.082 1.4 1.4 0 0 1-.473-.282 1.3 1.3 0 0 1-.317-.436 1.3 1.3 0 0 1-.11-.52M82.57 3.915l-1.175.128a.5.5 0 0 1-.173 0 .13.13 0 0 1-.073-.036.12.12 0 0 1-.018-.147.13.13 0 0 1 .061-.051.4.4 0 0 1 .168-.04l2.348-.256c.109 0 .262-.058.294.106.032.165-.138.15-.247.162q-.601.073-1.186.134m-5.713.631-1.142.125a1 1 0 0 1-.126 0c-.094 0-.206 0-.2-.114 0-.053.1-.106.162-.15.061-.046.061 0 .09-.015l2.332-.257c.114 0 .276-.061.293.112.018.173-.155.145-.267.16-.382.058-.76.108-1.142.139m3.849-1.488c-.115 0-.203-.086-.17-.167a.5.5 0 0 1 .085-.126L82.126.96c.03-.036.056-.084.097-.098a.2.2 0 0 1 .155.014.18.18 0 0 1 .041.143.2.2 0 0 1-.064.103l-1.497 1.791a2 2 0 0 1-.153.145m-4.31-1.59c.088.058.17.103.246.159q.726.542 1.448 1.088c.138.106.279.206.414.313.076.06.144.133.058.231s-.161.04-.235-.017q-.995-.744-1.984-1.498a.18.18 0 0 1-.065-.148c.006-.045.068-.08.118-.128m3.101-.112.138 1.116c0 .042.023.09 0 .12-.024.031-.07.126-.115.131-.044.006-.117-.05-.144-.094a.5.5 0 0 1-.044-.207 376 376 0 0 1-.258-2.107.4.4 0 0 1 0-.178.5.5 0 0 1 .123-.148q.076.063.138.14c.02.027.015.077.02.117zM12.286 19.27a1.8 1.8 0 0 1-.963-.27 1.66 1.66 0 0 1-.642-.733 1.56 1.56 0 0 1-.104-.95c.065-.319.229-.613.47-.843a1.75 1.75 0 0 1 .884-.453 1.8 1.8 0 0 1 1 .092c.316.125.586.335.776.606s.291.588.29.914c.004.215-.038.428-.123.627-.085.2-.21.381-.37.534-.16.152-.349.273-.558.355s-.434.123-.66.122"/><path fill="#333" d="M.658 31.412H2.73c1.365 0 2.193.96 2.193 2.53 0 1.572-.834 2.54-2.193 2.54H.658zm1.955 4.5c1.063 0 1.624-.675 1.624-1.953s-.561-1.97-1.624-1.97H1.345v3.932zm6.323-1.196c0 1.197-.657 1.928-1.761 1.928s-1.762-.726-1.762-1.954.65-1.953 1.741-1.953 1.782.712 1.782 1.978m-2.856-.028c0 .884.42 1.42 1.107 1.42s1.106-.536 1.106-1.395c0-.907-.414-1.44-1.106-1.44s-1.104.541-1.104 1.415zm6.814.029c0 1.197-.655 1.928-1.747 1.928s-1.761-.726-1.761-1.954.649-1.953 1.74-1.953c1.093 0 1.768.712 1.768 1.978m-2.856-.028c0 .884.422 1.42 1.11 1.42.686 0 1.106-.536 1.106-1.395 0-.907-.414-1.44-1.107-1.44-.692 0-1.11.541-1.11 1.415m4.129-1.849v.661c.355-.544.657-.765 1.053-.765q.12.002.238.02v.592c-.848-.023-1.233.368-1.239 1.244v1.892h-.622v-3.644zm3.851 1.016c-.015-.383-.293-.584-.775-.584s-.82.207-.82.558c0 .26.215.41.717.522l.587.134c.77.173 1.093.472 1.093 1.016 0 .703-.62 1.155-1.595 1.155-.974 0-1.511-.405-1.54-1.247h.648c.004.17.067.334.179.466.212.174.487.262.766.245.537 0 .901-.231.901-.577 0-.26-.17-.405-.587-.503l-.587-.13c-.916-.21-1.224-.48-1.224-1.053 0-.672.587-1.116 1.483-1.116.895 0 1.394.402 1.4 1.116zm2.813-.544h-.635v2.51c0 .257.073.327.34.327q.15.003.294-.028v.486a2.7 2.7 0 0 1-.502.05c-.478 0-.743-.204-.743-.578V33.32h-.525v-.482h.525v-1.002h.611v1.002h.634zm.865 1.545c-.02.274.052.546.206.779.098.149.236.27.4.354.162.083.345.124.53.12.231.006.457-.063.641-.196a.96.96 0 0 0 .37-.535h.619a1.47 1.47 0 0 1-.565.941 1.62 1.62 0 0 1-1.088.326c-1.092 0-1.762-.731-1.762-1.934s.693-1.976 1.762-1.976c.333-.013.662.072.942.244s.498.422.623.716c.127.375.18.768.155 1.161zm2.184-.474c0-.653-.437-1.116-1.062-1.116-.626 0-1.057.438-1.107 1.116zm1.234-1.543h.557v.558c.126-.203.307-.371.523-.486s.462-.172.71-.167c1.028 0 1.662.764 1.662 1.99 0 1.16-.649 1.92-1.653 1.92a1.5 1.5 0 0 1-.657-.137 1.4 1.4 0 0 1-.517-.408V38h-.625zm.619 1.85c0 .856.42 1.412 1.077 1.412.658 0 1.122-.558 1.122-1.395 0-.871-.444-1.435-1.122-1.435s-1.077.561-1.077 1.418m5.498-3.276h2.073c1.365 0 2.19.96 2.19 2.53 0 1.572-.834 2.54-2.19 2.54h-2.075zm1.956 4.5c1.063 0 1.623-.675 1.623-1.953s-.56-1.97-1.623-1.97h-1.268v3.932zm3.485-1.057c-.018.274.055.547.209.779.098.149.235.27.398.354.162.083.345.124.53.12.23.007.458-.063.642-.196a.96.96 0 0 0 .37-.535h.62c-.058.37-.26.706-.566.94a1.62 1.62 0 0 1-1.087.327c-1.092 0-1.761-.731-1.761-1.934s.692-1.976 1.761-1.976c.333-.012.662.074.942.245.28.172.498.422.623.715.127.375.18.768.155 1.161zm2.185-.474c0-.653-.435-1.116-1.063-1.116s-1.054.438-1.107 1.116zm1.928 2.101h-.62v-5.07h.62zm1.476-4.342h-.619v-.731h.62zm0 4.34h-.613v-3.642h.614zm1.809.002-1.371-3.644h.693l1.033 2.955 1.092-2.955h.705l-1.468 3.644zm2.901-1.627c-.02.274.052.546.205.779.1.148.237.27.4.353.163.084.346.125.531.121.23.006.457-.063.64-.196a.96.96 0 0 0 .37-.535h.628a1.47 1.47 0 0 1-.565.941 1.62 1.62 0 0 1-1.088.326c-1.092 0-1.761-.731-1.761-1.934s.693-1.976 1.761-1.976c.334-.013.663.072.943.244s.498.422.622.716c.128.375.18.768.156 1.161zm2.187-.482c0-.654-.434-1.117-1.063-1.117-.628 0-1.057.438-1.107 1.117zm1.908-1.535v.661c.355-.544.657-.765 1.057-.765q.117.002.235.02v.592c-.849-.023-1.233.368-1.24 1.244v1.892h-.619v-3.644zm4.932 0-1.72 4.411c-.073.23-.22.432-.42.578a1.1 1.1 0 0 1-.587.173.86.86 0 0 1-.414-.092v-.522q.16.039.323.042a.5.5 0 0 0 .318-.089.45.45 0 0 0 .178-.265l.235-.578-1.306-3.658h.663l.99 2.838 1.065-2.838zm5.683 1.878c0 1.197-.657 1.928-1.76 1.928-1.105 0-1.762-.726-1.762-1.954s.649-1.953 1.74-1.953c1.093 0 1.783.712 1.783 1.978m-2.856-.028c0 .884.42 1.42 1.107 1.42s1.107-.536 1.107-1.395c0-.907-.414-1.44-1.107-1.44s-1.107.541-1.107 1.415m4.953-1.377h-.643v3.172h-.611v-3.173h-.517v-.471h.517v-.62a.74.74 0 0 1 .048-.338.8.8 0 0 1 .197-.285.8.8 0 0 1 .306-.178.9.9 0 0 1 .356-.036q.176-.002.347.036v.48h-.215c-.293 0-.428.126-.428.369v.572h.643zm5.653-.411c0-.667-.487-1.03-1.344-1.03-.723 0-1.204.34-1.204.857 0 .39.238.583.88.75l1.357.338c.731.19 1.145.648 1.145 1.276a1.5 1.5 0 0 1-.158.642 1.54 1.54 0 0 1-.43.518 2.6 2.6 0 0 1-1.514.391c-.82 0-1.439-.246-1.806-.725a1.62 1.62 0 0 1-.32-1.05h.652c-.014.287.091.566.294.779.258.293.649.424 1.239.424.345.024.69-.051.989-.215a.9.9 0 0 0 .279-.309.86.86 0 0 0 .106-.394c0-.396-.294-.653-.99-.82l-1.335-.335c-.708-.173-1.055-.558-1.055-1.184 0-.917.732-1.487 1.912-1.487.907 0 1.535.307 1.829.89.114.21.163.446.14.681zm1.941 1.956a1.25 1.25 0 0 0 .208.779c.098.149.235.27.398.354s.346.124.53.12c.232.007.46-.062.644-.195a.96.96 0 0 0 .372-.536h.62c-.058.37-.26.706-.566.94a1.62 1.62 0 0 1-1.088.327c-1.092 0-1.76-.731-1.76-1.934s.692-1.976 1.76-1.976c.334-.012.663.074.943.245.28.172.497.422.622.715.128.375.18.768.156 1.161zm2.184-.474c0-.653-.434-1.116-1.062-1.116s-1.055.438-1.107 1.116zm1.914-1.543v.661c.353-.544.655-.765 1.055-.765q.12.002.237.02v.592c-.851-.023-1.233.368-1.242 1.244v1.892h-.619v-3.644zm2.872 3.644-1.36-3.644h.696l1.03 2.955 1.093-2.955h.695l-1.482 3.644zm3.217-4.342h-.62v-.731h.62zm0 4.34h-.614v-3.642h.614zm3.241-2.417a.82.82 0 0 0-.286-.575.9.9 0 0 0-.63-.218c-.672 0-1.068.542-1.068 1.454 0 .862.405 1.395 1.083 1.395.523 0 .843-.293.945-.876h.62c-.073.89-.658 1.412-1.58 1.412-1.048 0-1.711-.745-1.711-1.92s.672-1.99 1.72-1.99c.241-.01.482.035.702.129s.414.235.567.413c.161.234.25.507.258.787zm1.668.792a1.27 1.27 0 0 0 .206.779c.098.148.236.27.399.353.163.084.346.125.531.121.231.007.458-.063.642-.196a.96.96 0 0 0 .371-.535h.62c-.058.37-.26.706-.566.94a1.62 1.62 0 0 1-1.087.327c-1.093 0-1.762-.731-1.762-1.934s.696-1.976 1.762-1.976c.333-.012.662.074.941.245.28.172.498.422.623.715.125.375.177.769.153 1.161zm2.184-.474c0-.653-.434-1.116-1.063-1.116-.628 0-1.053.438-1.106 1.116zm3.388-.527c-.015-.383-.279-.584-.775-.584s-.82.207-.82.558c0 .26.215.41.717.522l.587.134c.77.173 1.093.472 1.093 1.016 0 .703-.62 1.155-1.595 1.155-.974 0-1.511-.405-1.54-1.247h.648a.76.76 0 0 0 .176.466c.213.174.489.262.77.245.537 0 .9-.231.9-.577 0-.26-.17-.405-.587-.503l-.587-.13c-.916-.21-1.224-.48-1.224-1.053 0-.672.587-1.116 1.483-1.116.895 0 1.394.402 1.4 1.116z"/><path fill="#1dac52" d="M54.371 6.957c0 .172-.04.343-.117.499a1.16 1.16 0 0 1-.388.43c-.21.142-.447.246-.699.304a4.3 4.3 0 0 1-1.062.112q-1.313 0-1.988-.606t-.675-1.822q-.007-.316.059-.628a.84.84 0 0 1 .164-.36.5.5 0 0 1 .261-.165q.166-.044.338-.041.137 0 .273.02.123.016.24.055v.879q-.008.404.095.795c.048.185.143.356.276.5.117.124.27.214.44.26q.288.072.587.069c.236.011.472-.038.681-.142a.5.5 0 0 0 .193-.2.5.5 0 0 0 .057-.266.45.45 0 0 0-.038-.19.7.7 0 0 0-.097-.162 1 1 0 0 0-.141-.14l-.165-.133a1.08 1.08 0 0 1 .446-.734.8.8 0 0 1 .268-.123q.359.209.766.31c.304.075.617.111.93.108h.11c.108.144.159.32.143.497a.8.8 0 0 1-.044.28.7.7 0 0 1-.094.2h-.387a2 2 0 0 1-.364-.045 1 1 0 0 1-.147-.044.8.8 0 0 1 .061.226q.018.127.018.257"/><path fill="#1dac52" d="M56.79 5.598a.6.6 0 0 0 .388-.107.36.36 0 0 0 .132-.25.34.34 0 0 0-.103-.263 1.7 1.7 0 0 0-.393-.218l-1.415-.594a.6.6 0 0 1-.08-.24 1.7 1.7 0 0 1-.029-.304v-.195q.012-.092.035-.182l2.546-1.487a.8.8 0 0 1 .208.114 1 1 0 0 1 .302.388.6.6 0 0 1 .047.232.4.4 0 0 1-.061.229.6.6 0 0 1-.244.181l-1.427.695.535.212c.185.072.367.15.537.231q.244.112.449.28a1.14 1.14 0 0 1 .429.912c0 .182-.037.362-.109.53a1.1 1.1 0 0 1-.329.419 1.6 1.6 0 0 1-.558.279 3 3 0 0 1-.79.097h-1.708a.7.7 0 0 1-.226-.253.8.8 0 0 1-.085-.366q0-.175.05-.343zm8.22 0c.109.144.16.32.144.496a.9.9 0 0 1-.041.28.8.8 0 0 1-.094.2h-.253c-.27.01-.54-.03-.795-.114a1.13 1.13 0 0 1-.476-.332.55.55 0 0 1-.182.318.64.64 0 0 1-.44.128q-.604 0-1.198-.106a5 5 0 0 1-1.004-.279q-.113-.002-.135.081-.03.178-.023.357v1.97a1.7 1.7 0 0 1-.825.067.7.7 0 0 1-.241-.078.45.45 0 0 1-.168-.159.5.5 0 0 1-.061-.262V6.633q-.008-.373.076-.737a1 1 0 0 1 .238-.45.84.84 0 0 1 .408-.222q.29-.063.587-.059.265-.446.482-.778.19-.298.434-.559.2-.206.467-.326a1.5 1.5 0 0 1 .587-.106q.271-.005.529.075c.155.052.295.137.41.249q.21.202.353.452.193.336.346.692.118.292.294.558c.03.058.078.107.135.142a.4.4 0 0 0 .194.056zm-1.84-.026a7 7 0 0 0-.212-.594 3 3 0 0 0-.18-.36.6.6 0 0 0-.143-.178.2.2 0 0 0-.109-.048.25.25 0 0 0-.146.084 1.5 1.5 0 0 0-.191.234q-.113.165-.203.343a4 4 0 0 0-.179.408q.216.06.44.09.252.036.505.035h.212l.2-.014z"/><path fill="#1dac52" d="M64.96 8.034a.6.6 0 0 1-.416-.151.52.52 0 0 1-.162-.375c0-.14.058-.276.162-.376a.65.65 0 0 1 .828 0 .5.5 0 0 1 .161.38.48.48 0 0 1-.153.37.56.56 0 0 1-.42.152m.153-2.436a.7.7 0 0 0 .33-.06.66.66 0 0 0 .257-.206c.148-.218.22-.474.206-.733 0-.235 0-.441-.015-.62s-.02-.32-.03-.432a2.5 2.5 0 0 1 .567-.067q.16-.002.315.033a.5.5 0 0 1 .246.154q.118.155.159.343.06.295.053.594a1.96 1.96 0 0 1-.508 1.448 1.9 1.9 0 0 1-.65.396 2 2 0 0 1-.762.112h-.294a.7.7 0 0 1-.223-.254.8.8 0 0 1-.088-.365q0-.175.05-.343zm1.213 2.436a.6.6 0 0 1-.42-.151.5.5 0 0 1-.159-.371.47.47 0 0 1 .168-.38.6.6 0 0 1 .41-.148.6.6 0 0 1 .415.148.5.5 0 0 1 .164.38.5.5 0 0 1-.153.37.56.56 0 0 1-.425.152m.765-.782a1 1 0 0 0 .097 0h.082c.147.008.294-.015.43-.069a1 1 0 0 0 .354-.24c.212-.293.31-.646.28-1 0-.212 0-.424-.015-.638s-.024-.419-.039-.614a10 10 0 0 0-.105-.93 1.3 1.3 0 0 1 .599-.145q.164-.002.323.042a.5.5 0 0 1 .234.154.8.8 0 0 1 .156.312q.067.255.088.516.021.226.032.439c.01.142 0 .279.018.438q.145.038.294.055.146.02.293.02h.109a.55.55 0 0 1 .1.206 1.1 1.1 0 0 1-.003.559.6.6 0 0 1-.091.2h-.033q-.19 0-.378-.03a2 2 0 0 1-.314-.081 2.5 2.5 0 0 1-.235.865 1.7 1.7 0 0 1-.438.558 1.6 1.6 0 0 1-.587.304q-.326.093-.666.092a.78.78 0 0 1-.502-.14.53.53 0 0 1-.176-.444q0-.105.02-.208.024-.114.073-.22"/><path fill="#1dac52" d="M71.393 6.223a.84.84 0 0 1-.352.237c-.24.078-.493.112-.746.1a.7.7 0 0 1-.223-.254.8.8 0 0 1-.085-.365 1.1 1.1 0 0 1 .05-.343h.193a.66.66 0 0 0 .294-.062.54.54 0 0 0 .22-.218c.176-.279.34-.558.49-.8q.198-.324.452-.611.209-.235.488-.388a1.3 1.3 0 0 1 .587-.137q.237-.002.467.056.204.053.373.178.18.139.31.321.17.233.294.489.174.35.294.72.112.335.12.686a.6.6 0 0 1-.061.279.6.6 0 0 1-.23.234q-.211.12-.452.165a4 4 0 0 1-.745.061q-.239 0-.476-.025a5 5 0 0 1-.901-.176 2 2 0 0 1-.361-.147m1.409-1.831a.22.22 0 0 0-.132.05 1 1 0 0 0-.165.196q-.108.159-.228.343c-.08.123-.159.279-.241.427q.09.04.188.064.114.03.246.056l.27.039q.13.02.262.02a.8.8 0 0 0 .273-.034.1.1 0 0 0 .059-.035.1.1 0 0 0 .023-.063 1 1 0 0 0-.02-.153 2 2 0 0 0-.062-.201 4 4 0 0 0-.185-.422 1 1 0 0 0-.144-.22.2.2 0 0 0-.144-.067"/></g><defs><clipPath id="a"><path fill="#fff" d="M0 0h93v38H0z"/></clipPath></defs></svg>