<svg xmlns="http://www.w3.org/2000/svg" width="267" height="39" fill="none" viewBox="0 0 267 39"><path fill="#038b45" d="M110.561 10.424q.972 0 1.752.312a3.65 3.65 0 0 1 1.344.9q.564.576.864 1.404.3.816.3 1.848 0 1.02-.3 1.848a4 4 0 0 1-.864 1.416 3.65 3.65 0 0 1-1.344.9q-.78.312-1.752.312a4.8 4.8 0 0 1-1.764-.312 3.8 3.8 0 0 1-1.344-.9 4.1 4.1 0 0 1-.852-1.416q-.3-.828-.3-1.848 0-1.032.3-1.848.3-.828.852-1.404a3.8 3.8 0 0 1 1.344-.9 4.8 4.8 0 0 1 1.764-.312m0 7.332q.744 0 1.26-.336.528-.348.804-.984.276-.648.276-1.548 0-.912-.276-1.548a2.1 2.1 0 0 0-.804-.972q-.516-.336-1.26-.336-.732 0-1.26.336t-.804.972-.276 1.548q0 .9.276 1.548.276.636.804.984.528.336 1.26.336m5.621 1.428v-8.58h1.872q.972 1.452 1.908 2.916.948 1.452 1.884 2.952v-5.868h1.776v8.58h-1.872q-.936-1.5-1.896-3a190 190 0 0 0-1.896-2.928v5.928zm9.169-8.58h5.904v1.536h-4.056V14h3.6v1.536h-3.6v2.112h4.284v1.536h-6.132zm11.338 0q.3 1.668.636 3.336t.708 3.276a263 263 0 0 0 1.524-6.252h1.8q.36 1.536.732 3.072.384 1.524.78 3.048.36-1.584.696-3.216t.624-3.264h1.98q-.504 2.184-1.068 4.332a165 165 0 0 1-1.176 4.248h-1.956a393 393 0 0 1-.804-2.904q-.384-1.452-.756-2.904a193 193 0 0 1-1.536 5.808h-1.956q-.612-2.1-1.176-4.248a149 149 0 0 1-1.068-4.332zm10.487 0h1.848v8.58h-1.848zm3.568 8.58v-8.58h1.872q.972 1.452 1.908 2.916.948 1.452 1.884 2.952v-5.868h1.776v8.58h-1.872q-.936-1.5-1.896-3a190 190 0 0 0-1.896-2.928v5.928zm9.17-8.58h3.276q1.368 0 2.328.504t1.464 1.464q.504.948.504 2.304t-.516 2.328a3.5 3.5 0 0 1-1.464 1.476q-.96.504-2.328.504h-3.264zm3.168 6.996q1.212 0 1.848-.696.636-.708.636-2.028 0-1.308-.636-1.992-.624-.696-1.836-.696h-1.332V17.6zm9.667-7.176q.972 0 1.752.312a3.65 3.65 0 0 1 1.344.9q.564.576.864 1.404.3.816.3 1.848 0 1.02-.3 1.848a4 4 0 0 1-.864 1.416 3.65 3.65 0 0 1-1.344.9q-.78.312-1.752.312a4.8 4.8 0 0 1-1.764-.312 3.8 3.8 0 0 1-1.344-.9 4.1 4.1 0 0 1-.852-1.416q-.3-.828-.3-1.848 0-1.032.3-1.848.3-.828.852-1.404a3.8 3.8 0 0 1 1.344-.9 4.8 4.8 0 0 1 1.764-.312m0 7.332q.744 0 1.26-.336.528-.348.804-.984.276-.648.276-1.548 0-.912-.276-1.548a2.1 2.1 0 0 0-.804-.972q-.516-.336-1.26-.336-.732 0-1.26.336t-.804.972-.276 1.548q0 .9.276 1.548.276.636.804.984.528.336 1.26.336m6.8-7.152q.3 1.668.636 3.336t.708 3.276a263 263 0 0 0 1.524-6.252h1.8q.36 1.536.732 3.072.384 1.524.78 3.048.36-1.584.696-3.216t.624-3.264h1.98q-.504 2.184-1.068 4.332a165 165 0 0 1-1.176 4.248h-1.956a393 393 0 0 1-.804-2.904q-.384-1.452-.756-2.904a193 193 0 0 1-1.536 5.808h-1.956q-.612-2.1-1.176-4.248a149 149 0 0 1-1.068-4.332zm13.187 0h5.724v1.536h-3.876v2.112h3.42v1.536h-3.42v3.396h-1.848zm10.773-.18q.972 0 1.752.312a3.65 3.65 0 0 1 1.344.9q.564.576.864 1.404.3.816.3 1.848 0 1.02-.3 1.848a4 4 0 0 1-.864 1.416 3.65 3.65 0 0 1-1.344.9q-.78.312-1.752.312a4.8 4.8 0 0 1-1.764-.312 3.8 3.8 0 0 1-1.344-.9 4.1 4.1 0 0 1-.852-1.416q-.3-.828-.3-1.848 0-1.032.3-1.848.3-.828.852-1.404a3.8 3.8 0 0 1 1.344-.9 4.8 4.8 0 0 1 1.764-.312m0 7.332q.744 0 1.26-.336.528-.348.804-.984.276-.648.276-1.548 0-.912-.276-1.548a2.1 2.1 0 0 0-.804-.972q-.516-.336-1.26-.336-.732 0-1.26.336t-.804.972-.276 1.548q0 .9.276 1.548.276.636.804.984.528.336 1.26.336m5.621 1.428v-8.58h3.132q1.692 0 2.592.708.912.708.912 2.028 0 .852-.408 1.452-.396.6-1.14.924.54.852 1.068 1.716.528.852 1.056 1.752h-2.124a85 85 0 0 0-1.788-3.12h-1.476v3.12zm1.824-4.572h1.2q.852 0 1.296-.3.444-.312.444-.972 0-.672-.444-.972-.432-.312-1.284-.312h-1.212zm13.634-4.008a218 218 0 0 1 1.728 4.284 189 189 0 0 1 1.644 4.296h-2.028q-.312-.948-.624-1.86h-3.48q-.312.924-.624 1.86h-1.98a183 183 0 0 1 1.656-4.404q.852-2.148 1.716-4.176zm-2.232 5.184h2.412a59 59 0 0 0-.6-1.668q-.3-.84-.6-1.644-.624 1.644-1.212 3.312m6.548-5.184h1.848v6.972h4.068v1.608h-5.916zm6.92 0h1.848v6.972h4.068v1.608h-5.916z"/><path fill="#fcaf3f" d="M110.789 31.364q-1.044 0-1.884-.3a4 4 0 0 1-1.416-.888 4 4 0 0 1-.888-1.416q-.3-.828-.3-1.872 0-1.02.324-1.836a4 4 0 0 1 .924-1.416q.6-.588 1.44-.9a5.5 5.5 0 0 1 1.896-.312q.78 0 1.488.156.72.144 1.32.432v1.704a4.4 4.4 0 0 0-1.212-.504 5.2 5.2 0 0 0-1.404-.18q-.9 0-1.548.336a2.3 2.3 0 0 0-.972.972q-.336.636-.336 1.548 0 1.392.696 2.148.696.744 1.992.744a4.4 4.4 0 0 0 1.284-.192V27.86h-1.536v-1.452h3.264v4.272q-.408.216-.924.372t-1.08.228a8 8 0 0 1-1.128.084m8.566-8.94q.972 0 1.752.312a3.65 3.65 0 0 1 1.344.9q.564.576.864 1.404.3.816.3 1.848 0 1.02-.3 1.848a4 4 0 0 1-.864 1.416 3.65 3.65 0 0 1-1.344.9q-.78.312-1.752.312a4.8 4.8 0 0 1-1.764-.312 3.8 3.8 0 0 1-1.344-.9 4.1 4.1 0 0 1-.852-1.416q-.3-.828-.3-1.848 0-1.032.3-1.848.3-.828.852-1.404a3.8 3.8 0 0 1 1.344-.9 4.8 4.8 0 0 1 1.764-.312m0 7.332q.744 0 1.26-.336.528-.348.804-.984.276-.648.276-1.548 0-.912-.276-1.548a2.1 2.1 0 0 0-.804-.972q-.516-.336-1.26-.336-.732 0-1.26.336t-.804.972-.276 1.548q0 .9.276 1.548.276.636.804.984.528.336 1.26.336m6.564-7.152q.552 1.68 1.116 3.348t1.152 3.336a275 275 0 0 0 1.152-3.336 410 410 0 0 0 1.116-3.348h1.98a234 234 0 0 1-1.608 4.296q-.816 2.136-1.668 4.284h-1.992a476 476 0 0 1-1.68-4.296 354 354 0 0 1-1.596-4.284zm7.465 0h5.904v1.536h-4.056V26h3.6v1.536h-3.6v2.112h4.284v1.536h-6.132zm7.341 8.58v-8.58h3.132q1.692 0 2.592.708.912.708.912 2.028 0 .852-.408 1.452-.396.6-1.14.924.54.852 1.068 1.716.528.852 1.056 1.752h-2.124a85 85 0 0 0-1.788-3.12h-1.476v3.12zm1.824-4.572h1.2q.852 0 1.296-.3.444-.312.444-.972 0-.672-.444-.972-.432-.312-1.284-.312h-1.212zm6.35 4.572v-8.58h1.872q.972 1.452 1.908 2.916.948 1.452 1.884 2.952v-5.868h1.776v8.58h-1.872q-.936-1.5-1.896-3a190 190 0 0 0-1.896-2.928v5.928zm9.169 0v-8.58h2.22q.564 1.32 1.152 2.64.588 1.308 1.2 2.592.6-1.284 1.188-2.58.588-1.308 1.14-2.652h2.16v8.58h-1.764v-5.856q-.492 1.08-1.008 2.148-.504 1.056-1.02 2.112h-1.476q-.528-1.056-1.032-2.112-.504-1.068-.996-2.124v5.832zm10.787-8.58h5.904v1.536h-4.056V26h3.6v1.536h-3.6v2.112h4.284v1.536h-6.132zm7.341 8.58v-8.58h1.872q.972 1.452 1.908 2.916.948 1.452 1.884 2.952v-5.868h1.776v8.58h-1.872q-.936-1.5-1.896-3a190 190 0 0 0-1.896-2.928v5.928zm8.45-8.58h7.248v1.608h-2.7v6.972h-1.848v-6.972h-2.7zm13.374 8.76a6.4 6.4 0 0 1-1.404-.156 5.4 5.4 0 0 1-1.32-.492V29.06q1.284.78 2.724.78.816 0 1.236-.276.432-.276.432-.768 0-.372-.216-.576a1.35 1.35 0 0 0-.552-.336 7 7 0 0 0-.78-.24 9 9 0 0 1-1.248-.384 3.8 3.8 0 0 1-.912-.504 2 2 0 0 1-.564-.708 2.4 2.4 0 0 1-.192-.996q0-.816.408-1.404.42-.588 1.176-.9.756-.324 1.8-.324.684 0 1.344.156.672.144 1.188.42v1.632a4.5 4.5 0 0 0-1.2-.504q-.66-.18-1.332-.18-.732 0-1.14.252a.8.8 0 0 0-.396.72q0 .336.192.54.192.192.54.324.36.12.84.24.612.156 1.14.348.528.18.924.468.408.288.624.732.228.444.228 1.092 0 .852-.42 1.464-.42.6-1.212.924-.792.312-1.908.312m4.859-8.76h5.904v1.536h-4.056V26h3.6v1.536h-3.6v2.112h4.284v1.536h-6.132zm7.341 8.58v-8.58h3.132q1.692 0 2.592.708.912.708.912 2.028 0 .852-.408 1.452-.396.6-1.14.924.54.852 1.068 1.716.528.852 1.056 1.752h-2.124a85 85 0 0 0-1.788-3.12h-1.476v3.12zm1.824-4.572h1.2q.852 0 1.296-.3.444-.312.444-.972 0-.672-.444-.972-.432-.312-1.284-.312h-1.212zm7.422-4.008q.552 1.68 1.116 3.348t1.152 3.336a275 275 0 0 0 1.152-3.336 410 410 0 0 0 1.116-3.348h1.98a234 234 0 0 1-1.608 4.296q-.816 2.136-1.668 4.284h-1.992a476 476 0 0 1-1.68-4.296 354 354 0 0 1-1.596-4.284zm7.464 0h1.848v8.58h-1.848zm7.588 8.76q-1.02 0-1.836-.3a3.8 3.8 0 0 1-1.38-.888 3.85 3.85 0 0 1-.864-1.404q-.3-.84-.3-1.884 0-1.02.312-1.836a3.9 3.9 0 0 1 .9-1.416q.588-.588 1.404-.9a5.2 5.2 0 0 1 1.848-.312q.708 0 1.332.156.636.144 1.176.432v1.704a3.6 3.6 0 0 0-1.068-.504 4 4 0 0 0-1.212-.18q-.876 0-1.5.336a2.3 2.3 0 0 0-.948.972q-.324.636-.324 1.548t.312 1.56q.324.636.936.972t1.464.336a4.46 4.46 0 0 0 2.436-.708v1.668a4.7 4.7 0 0 1-1.224.468q-.696.18-1.464.18m3.907-8.76h5.904v1.536h-4.056V26h3.6v1.536h-3.6v2.112h4.284v1.536h-6.132zm9.766 8.76a6.4 6.4 0 0 1-1.404-.156 5.4 5.4 0 0 1-1.32-.492V29.06q1.284.78 2.724.78.816 0 1.236-.276.432-.276.432-.768 0-.372-.216-.576a1.35 1.35 0 0 0-.552-.336 7 7 0 0 0-.78-.24 9 9 0 0 1-1.248-.384 3.8 3.8 0 0 1-.912-.504 2 2 0 0 1-.564-.708 2.4 2.4 0 0 1-.192-.996q0-.816.408-1.404.42-.588 1.176-.9.756-.324 1.8-.324.684 0 1.344.156.672.144 1.188.42v1.632a4.5 4.5 0 0 0-1.2-.504q-.66-.18-1.332-.18-.732 0-1.14.252a.8.8 0 0 0-.396.72q0 .336.192.54.192.192.54.324.36.12.84.24.612.156 1.14.348.528.18.924.468.408.288.624.732.228.444.228 1.092 0 .852-.42 1.464-.42.6-1.212.924-.792.312-1.908.312"/><g clip-path="url(#a)"><path fill="#038b45" d="M0 5.808c.24-.023.484-.069.724-.069 2.641 0 5.285-.074 7.923.026 4.394.166 7.733 2.122 9.866 5.857 1.386 2.428 1.742 5.057 1.383 7.79a11.75 11.75 0 0 1-2.353 5.842c-2.172 2.775-5.044 4.295-8.665 4.413-2.828.08-5.661.043-8.495.06H0v-.178c.107-.48.237-.953.318-1.432a37.6 37.6 0 0 0 .376-6.108V11.965q.017-1.493-.127-2.981C.448 7.959.199 6.951.006 5.934zm4.122 11.874v9.307c0 .36-.027.719 0 1.08.026.36.151.484.516.48 1.187 0 2.374 0 3.56-.056a7.3 7.3 0 0 0 4.556-1.853c1.448-1.295 2.311-2.924 2.837-4.734.537-2.004.682-4.088.427-6.143a11.6 11.6 0 0 0-1.546-4.846c-1.484-2.506-3.668-3.903-6.706-3.946-1-.015-2-.026-3-.046-.594 0-.644.017-.644.587zm21.825 12.3c-.49-.09-.982-.152-1.463-.272-2.033-.519-3.338-1.75-3.695-3.766-.376-2.125.39-3.835 2.318-4.966a16 16 0 0 1 2.235-.951 1.8 1.8 0 0 1 .626-.083h3.706c.392 0 .78.074 1.172.083.205 0 .41-.083.614-.083h3.264v6.206q-.005.462.066.92c.139.858.64 1.216 1.54 1.145.145-.015.296-.04.462-.063a1.3 1.3 0 0 1-.412.859 2.9 2.9 0 0 1-1.044.668 2.95 2.95 0 0 1-2.437-.185 2.8 2.8 0 0 1-.922-.818c-.217-.315-.374-.662-.594-1.028-.104.091-.217.18-.314.286-1.149 1.146-2.502 1.899-4.179 2.033-.026 0-.05.029-.077.043zm5.463-6.183h.02v-2.065c0-.479-.091-.573-.575-.659a7 7 0 0 0-.472-.069c-1.151-.143-2.297-.171-3.404.224-1.483.532-2.572 1.432-2.792 3.053a3.35 3.35 0 0 0 .153 1.527c.17.491.45.94.823 1.313.372.372.827.66 1.33.84s1.041.25 1.576.203a4.7 4.7 0 0 0 3.077-1.58 1 1 0 0 0 .255-.574c.026-.733.009-1.474.009-2.213m35.19 6.183a16 16 0 0 1-1.751-.433c-2.128-.77-3.33-2.466-3.28-4.65a4.35 4.35 0 0 1 .462-1.904 4.5 4.5 0 0 1 1.257-1.533 7.4 7.4 0 0 1 2.991-1.452 2.2 2.2 0 0 1 .505-.058h3.545c.446 0 .89.072 1.336.08.225 0 .45-.08.68-.08h3.16c.017 0 .038.018.095.043v6.358q.004.401.07.796.024.247.146.463.123.216.325.368a1.25 1.25 0 0 0 .951.232c.17-.014.335-.04.522-.063a.81.81 0 0 1-.252.721c-.216.27-.487.491-.798.652-.31.16-.652.257-1.003.282-1.484.149-2.475-.444-3.172-1.867l-.181-.367a6.23 6.23 0 0 1-3.579 2.228c-.314.078-.635.126-.955.19zm5.673-6.16v-2.188c0-.27-.095-.467-.389-.519-1.308-.232-2.626-.335-3.916.075-1.725.544-3.093 1.772-2.932 3.851a3.42 3.42 0 0 0 1.238 2.327c.712.59 1.636.885 2.572.824a4.8 4.8 0 0 0 3.151-1.57.94.94 0 0 0 .276-.693c-.003-.716.003-1.414 0-2.107m-29.33 6.16c-.499-.08-1-.15-1.484-.24a17 17 0 0 1-3.62-1.175.64.64 0 0 1-.316-.247.6.6 0 0 1-.1-.38v-2.864q.034-.232.122-.45c.496.533.932 1.031 1.4 1.498 1.146 1.146 2.401 2.134 4.045 2.529a3.8 3.8 0 0 0 1.894.051 3.7 3.7 0 0 0 1.667-.867c.255-.232.455-.514.588-.827a2.3 2.3 0 0 0-.074-1.958 2.4 2.4 0 0 0-.647-.784 7.8 7.8 0 0 0-2.51-1.245c-1.508-.524-3.036-1.008-4.452-1.787a4.4 4.4 0 0 1-1.513-1.263 3 3 0 0 1 .258-.029h6.739a1 1 0 0 1 .315.037c.993.34 1.941.791 2.824 1.346.588.375 1.07.886 1.4 1.486.331.6.5 1.271.494 1.95.038 1.682-.546 3.117-2.042 4.082a7.3 7.3 0 0 1-3.231 1.062c-.104 0-.205.04-.297.06zM94 29.735c-.87 0-1.742 0-2.611.035a2.5 2.5 0 0 1-1.214-.207c-.38-.17-.706-.43-.95-.758-.504-.648-.97-1.323-1.468-1.977a1204 1204 0 0 0-4.226-5.492c-.406-.527-.383-.673.122-1.106 1.22-1.04 2.442-2.079 3.644-3.15a3.67 3.67 0 0 0 1.179-1.66 3.55 3.55 0 0 0 .097-2.009c0-.057 0-.12-.021-.197h5.184c-.196.194-.347.37-.525.518l-6.576 5.479c-.445.366-.454.45-.095.908l7.006 8.952c.154.197.297.395.454.593zm-37.828.247a10 10 0 0 1-1.154-.327 3.55 3.55 0 0 1-1.614-1.2 3.36 3.36 0 0 1-.668-1.858c-.118-1.567-.107-3.15-.142-4.711V19.96h3.29v.358c.021 1.718.066 3.408.054 5.115 0 1.595 1.172 2.73 3.166 2.237.769-.19 1.517-.456 2.294-.694a5 5 0 0 1-1.143 1.576 5 5 0 0 1-2.822 1.38.4.4 0 0 0-.112.049z"/><path fill="#f5bb18" d="M41.848 16.172h3.47v-5.129c0-.263.062-.366.352-.355.532.023 1.066.02 1.597 0 .279 0 .341.095.341.34v5.147c.128 0 .229.014.33.014h3.516c.297 0 .359-.08.356-.346v-5.247h2.098c.06 0 .16.187.163.287v5.226q.11.03.223.04h2.011c.244 0 .315-.088.312-.306 0-1.647 0-3.29-.027-4.934 0-.287.083-.356.362-.35.626.02 1.253 0 1.911 0v5.59h2.353c.06 0 .164-.189.164-.286v-5.295h1.362c.89 0 .89 0 .89.859v6.759c-.128 0-.238.025-.347.025H26.163c-2.282 0-4.246-2.29-3.973-4.49s2.439-3.823 4.747-3.68c.214 0 .312.077.297.286v1.495a9 9 0 0 0-.91 0c-.368.04-.722.16-1.035.35a2.4 2.4 0 0 0-.773.75 2.3 2.3 0 0 0-.231 2.05q.167.297.427.524c.487.522 1.083.653 1.813.648 3.718-.032 7.418 0 11.151 0 .478 0 .956-.035 1.434-.075.314-.037.604-.182.815-.41s.33-.522.333-.827c.002-.3-.109-.591-.314-.818a1.3 1.3 0 0 0-.796-.41 15 15 0 0 0-1.338-.064c-1.662-.02-3.32 0-4.982-.045-1.78-.043-2.713-1.266-2.858-2.727a4.9 4.9 0 0 1 .187-2.076c.089-.297.24-.573.444-.811s.457-.433.743-.572q2.742-1.35 5.48-2.707c.102-.048.205-.089.315-.134 0 .664.015 1.297-.015 1.927 0 .109-.18.24-.296.31-1.437.758-2.882 1.506-4.318 2.259-.718.378-.997.962-.753 1.606.07.23.213.432.408.579s.433.23.68.24c1.17.044 2.342.044 3.51.075.989.026 1.98.04 2.968.112 1.484.106 2.309.859 2.6 2.29.128.66.12 1.336-.024 1.991z"/><path fill="#038b45" d="M83.127 29.667h-4.596q.294-1.193.46-2.409c.121-1.346.145-2.703.207-4.055V12.569c0-1.231-.017-2.465-.07-3.694a10.1 10.1 0 0 0-.573-2.864c-.134-.39-.087-.472.335-.53 1.02-.14 2.041-.286 3.065-.406.38-.049.558.12.558.484v13.9c0 1.871 0 3.741.027 5.611.021 1.336.205 2.666.546 3.96q.042.165.065.333a2 2 0 0 0-.024.304"/><path fill="#f5bb18" d="M65.748 13.526v-2.019h7.38a3 3 0 0 1 1.29.237 2.9 2.9 0 0 1 1.048.765c1.309 1.527.864 4.416-.851 5.493a1.57 1.57 0 0 1-.772.238c-2.617.017-5.237 0-7.855 0-.065 0-.127 0-.225-.017 0-.1-.02-.198-.02-.287V16.52c0-.26.082-.332.346-.33h5.97c.458 0 .918.018 1.375 0a.83.83 0 0 0 .495-.206c.623-.604.706-1.303.252-1.878a1.1 1.1 0 0 0-.402-.345 1.2 1.2 0 0 0-.52-.13c-.873-.018-1.745-.05-2.618-.058-1.51-.017-3.02-.017-4.534-.023zM44.24 6.266a1.3 1.3 0 0 1-.12.532c-.077.168-.188.32-.326.445a1.4 1.4 0 0 1-.48.287 1.5 1.5 0 0 1-.558.082c-.38.013-.748-.12-1.026-.37a1.37 1.37 0 0 1-.457-.962 1.38 1.38 0 0 1 .447-.982 1.5 1.5 0 0 1 1.036-.39c.19-.006.38.024.558.09q.269.098.479.29a1.37 1.37 0 0 1 .447.978m.674-.008q.006-.278.122-.532c.077-.167.188-.318.326-.444q.21-.19.48-.287c.177-.064.366-.094.556-.086a1.5 1.5 0 0 1 .56.096c.177.067.34.167.478.295a1.4 1.4 0 0 1 .445.986 1.3 1.3 0 0 1-.132.527c-.08.166-.193.315-.332.438q-.212.186-.481.28a1.5 1.5 0 0 1-.556.081 1.45 1.45 0 0 1-1.034-.374 1.35 1.35 0 0 1-.32-.447 1.3 1.3 0 0 1-.112-.533m38.543-2.24-1.187.132a.5.5 0 0 1-.175 0 .13.13 0 0 1-.073-.037.123.123 0 0 1 .043-.204.4.4 0 0 1 .17-.04l2.373-.263c.11 0 .264-.06.297.108.033.17-.14.155-.25.167-.406.051-.803.094-1.198.137m-5.775.647-1.154.13a1 1 0 0 1-.128 0c-.095 0-.208 0-.202-.118 0-.055.101-.11.164-.155.062-.046.062 0 .092-.014l2.356-.264c.115 0 .279-.063.296.115.018.177-.157.149-.27.163a16 16 0 0 1-1.154.143m3.891-1.526c-.116 0-.205-.089-.173-.172a.5.5 0 0 1 .086-.129L83.01.985c.03-.037.056-.086.098-.1a.2.2 0 0 1 .157.014.2.2 0 0 1 .041.146.23.23 0 0 1-.065.106L81.727 2.99q-.073.078-.154.149m-4.356-1.633c.089.06.172.106.249.164.49.369.976.744 1.463 1.116.14.11.282.212.418.321.077.063.146.138.06.238-.087.1-.164.04-.238-.017q-1.006-.765-2.006-1.538a.2.2 0 0 1-.065-.152c.006-.046.068-.083.119-.132m3.133-.114.14 1.145c0 .043.023.092 0 .123-.024.032-.071.13-.116.135-.044.006-.119-.051-.145-.097a.5.5 0 0 1-.045-.212 404 404 0 0 1-.261-2.162.4.4 0 0 1 0-.184.5.5 0 0 1 .125-.151q.075.064.14.143c.02.028.014.08.02.12zM12.419 19.778a1.8 1.8 0 0 1-.974-.277 1.7 1.7 0 0 1-.649-.754 1.63 1.63 0 0 1-.105-.974c.066-.328.231-.629.475-.866s.555-.398.894-.464.69-.033 1.01.095c.32.127.593.343.785.62.192.278.294.605.294.939a1.62 1.62 0 0 1-.499 1.191c-.161.157-.353.28-.565.365a1.8 1.8 0 0 1-.666.125"/><path fill="#333" d="M.665 32.238H2.76c1.38 0 2.217.986 2.217 2.598s-.843 2.606-2.217 2.606H.665zm1.976 4.62c1.074 0 1.641-.693 1.641-2.005s-.567-2.022-1.64-2.022H1.358v4.035zm6.391-1.228c0 1.228-.664 1.978-1.78 1.978s-1.78-.745-1.78-2.005.655-2.004 1.76-2.004c1.103 0 1.8.73 1.8 2.03m-2.887-.03c0 .908.424 1.458 1.119 1.458.694 0 1.119-.55 1.119-1.432 0-.93-.419-1.477-1.12-1.477-.7 0-1.115.555-1.115 1.451zm6.888.031c0 1.228-.661 1.978-1.765 1.978s-1.78-.745-1.78-2.005.655-2.004 1.759-2.004 1.786.73 1.786 2.03m-2.887-.03c0 .908.427 1.458 1.122 1.458.694 0 1.118-.55 1.118-1.432 0-.93-.418-1.477-1.118-1.477s-1.122.555-1.122 1.451m4.172-1.897v.679c.359-.559.665-.785 1.065-.785q.12 0 .24.02v.607c-.857-.023-1.246.378-1.252 1.277v1.942h-.629v-3.74zm3.892 1.042c-.014-.392-.296-.598-.783-.598-.486 0-.828.212-.828.573 0 .266.217.42.725.535l.593.138c.777.177 1.104.484 1.104 1.042 0 .722-.626 1.186-1.611 1.186-.986 0-1.529-.416-1.558-1.28h.656a.77.77 0 0 0 .18.478c.214.179.493.27.775.252.543 0 .911-.238.911-.593 0-.266-.172-.415-.593-.515l-.594-.135c-.926-.215-1.237-.493-1.237-1.08 0-.69.593-1.145 1.498-1.145s1.41.412 1.416 1.145zm2.843-.558h-.64v2.577c0 .264.073.335.343.335q.15.004.297-.028v.498q-.251.05-.507.052c-.484 0-.75-.21-.75-.593v-2.83h-.532v-.495h.531v-1.028h.617v1.028h.641zm.876 1.586a1.3 1.3 0 0 0 .207.8 1.1 1.1 0 0 0 .941.486c.233.007.462-.064.648-.2a.98.98 0 0 0 .373-.55h.626c-.058.38-.262.725-.571.966-.31.241-.703.36-1.1.334-1.104 0-1.78-.75-1.78-1.985 0-1.234.7-2.027 1.78-2.027.337-.014.67.074.953.25.283.177.503.433.629.735.129.384.182.788.157 1.191zm2.207-.486c0-.67-.442-1.146-1.074-1.146s-1.068.45-1.119 1.145zm1.247-1.584h.564v.573c.127-.209.31-.381.528-.499a1.45 1.45 0 0 1 .718-.172c1.038 0 1.68.785 1.68 2.042 0 1.192-.656 1.97-1.671 1.97a1.5 1.5 0 0 1-.664-.139 1.4 1.4 0 0 1-.523-.419V39h-.632zm.626 1.899c0 .879.424 1.449 1.089 1.449s1.134-.573 1.134-1.432c0-.894-.449-1.472-1.134-1.472s-1.09.575-1.09 1.455m5.558-3.363h2.095c1.38 0 2.214.986 2.214 2.598s-.843 2.606-2.214 2.606h-2.098zm1.977 4.62c1.074 0 1.64-.693 1.64-2.005s-.566-2.022-1.64-2.022H32.26v4.035zm3.523-1.086a1.3 1.3 0 0 0 .21.8 1.08 1.08 0 0 0 .938.486c.234.007.463-.064.65-.2a1 1 0 0 0 .374-.55h.626c-.058.38-.262.724-.572.965a1.62 1.62 0 0 1-1.099.335c-1.103 0-1.78-.75-1.78-1.985 0-1.234.7-2.027 1.78-2.027.337-.013.67.075.952.251.283.176.503.433.63.734.129.384.182.788.157 1.191zm2.207-.486c0-.67-.439-1.146-1.074-1.146s-1.065.45-1.118 1.145zm1.95 2.156h-.626v-5.204h.626zm1.492-4.456h-.626v-.75h.626zm0 4.453h-.62v-3.737h.62zm1.828.003-1.386-3.74h.7l1.045 3.033 1.104-3.033h.712l-1.484 3.74zm2.932-1.67c-.02.281.053.56.208.8a1.1 1.1 0 0 0 .94.486c.234.007.462-.064.648-.2a.98.98 0 0 0 .373-.55h.635c-.057.38-.261.725-.571.966s-.703.36-1.1.334c-1.103 0-1.78-.75-1.78-1.985 0-1.234.7-2.027 1.78-2.027.337-.014.67.074.953.25a1.6 1.6 0 0 1 .63.735c.128.384.181.788.156 1.191zm2.21-.495c0-.67-.439-1.146-1.074-1.146s-1.068.45-1.118 1.146zm1.929-1.575v.679c.359-.559.664-.785 1.068-.785q.12 0 .237.02v.607c-.857-.023-1.246.378-1.252 1.277v1.942h-.626v-3.74zm4.986 0-1.74 4.528a1.17 1.17 0 0 1-.424.593 1.1 1.1 0 0 1-.593.177.86.86 0 0 1-.419-.094v-.536q.16.04.327.043a.5.5 0 0 0 .32-.091.46.46 0 0 0 .181-.273l.237-.593-1.32-3.754h.67l1 2.913 1.078-2.913zm5.744 1.928c0 1.228-.665 1.978-1.78 1.978-1.116 0-1.78-.745-1.78-2.005s.655-2.004 1.759-2.004 1.801.73 1.801 2.03m-2.887-.03c0 .908.424 1.458 1.118 1.458s1.12-.55 1.12-1.432c0-.93-.42-1.477-1.12-1.477s-1.118.555-1.118 1.451m5.006-1.413h-.65v3.256h-.617v-3.256h-.522v-.484h.522v-.636a.77.77 0 0 1 .248-.64.83.83 0 0 1 .67-.22q.176 0 .35.038v.493h-.217c-.297 0-.434.128-.434.378v.587h.65zm5.715-.421c0-.685-.493-1.057-1.36-1.057-.73 0-1.216.35-1.216.88 0 .4.24.598.89.77l1.371.346c.74.195 1.157.664 1.157 1.309a1.5 1.5 0 0 1-.16.66c-.102.205-.25.386-.433.531-.453.289-.99.43-1.531.401-.828 0-1.454-.252-1.825-.744a1.68 1.68 0 0 1-.323-1.077h.658c-.014.294.092.58.297.799.261.3.656.435 1.252.435.349.024.697-.052 1-.22a.9.9 0 0 0 .282-.317.9.9 0 0 0 .107-.405c0-.407-.297-.67-1-.842l-1.35-.344c-.715-.177-1.065-.572-1.065-1.214 0-.942.738-1.526 1.931-1.526.917 0 1.552.315 1.849.913.115.215.165.458.142.699zm1.962 2.007c-.02.282.054.561.21.8.099.152.237.277.402.363.164.085.349.128.535.123a1.05 1.05 0 0 0 .651-.2 1 1 0 0 0 .376-.55h.626c-.058.38-.262.724-.572.965a1.62 1.62 0 0 1-1.098.335c-1.104 0-1.78-.75-1.78-1.985 0-1.234.7-2.027 1.78-2.027.336-.013.669.075.952.251s.503.433.63.734c.128.384.181.788.156 1.191zm2.207-.486c0-.67-.44-1.146-1.074-1.146s-1.066.45-1.12 1.145zm1.935-1.584v.679c.356-.559.661-.785 1.065-.785q.12.001.24.02v.607c-.86-.023-1.246.378-1.255 1.277v1.942h-.626v-3.74zm2.902 3.74-1.373-3.74h.703l1.041 3.033 1.104-3.033h.703l-1.498 3.74zm3.252-4.456h-.626v-.75h.626zm0 4.453h-.62v-3.737h.62zm3.276-2.479a.85.85 0 0 0-.29-.591.9.9 0 0 0-.636-.223c-.68 0-1.08.555-1.08 1.492 0 .885.41 1.432 1.095 1.432.528 0 .852-.301.956-.9h.626c-.074.914-.665 1.45-1.597 1.45-1.059 0-1.73-.765-1.73-1.97s.68-2.043 1.74-2.043a1.6 1.6 0 0 1 1.281.556c.164.24.254.52.261.808zm1.686.812c-.019.281.054.56.208.8.1.152.239.277.403.362.165.086.35.128.537.124.234.007.463-.064.65-.2a1 1 0 0 0 .374-.55h.626c-.058.38-.262.724-.572.965a1.62 1.62 0 0 1-1.099.335c-1.104 0-1.78-.75-1.78-1.985 0-1.234.703-2.027 1.78-2.027.337-.013.67.075.952.251.283.176.503.433.63.734.126.385.178.788.154 1.191zm2.207-.486c0-.67-.439-1.146-1.074-1.146s-1.065.45-1.118 1.145zm3.425-.542c-.015-.392-.282-.598-.784-.598-.501 0-.828.212-.828.573 0 .266.217.42.724.535l.594.138c.777.177 1.104.484 1.104 1.042 0 .722-.626 1.186-1.612 1.186-.985 0-1.528-.416-1.557-1.28h.655a.8.8 0 0 0 .178.478c.216.178.495.269.778.252.543 0 .91-.238.91-.593 0-.266-.171-.415-.592-.515l-.594-.135c-.926-.215-1.237-.493-1.237-1.08 0-.69.593-1.145 1.498-1.145s1.41.412 1.416 1.145z"/><path fill="#038b45" d="M54.956 7.14c0 .177-.041.352-.119.512a1.2 1.2 0 0 1-.392.441 2.1 2.1 0 0 1-.706.312 4.3 4.3 0 0 1-1.074.115q-1.326 0-2.009-.621-.682-.622-.682-1.87a3 3 0 0 1 .059-.645.9.9 0 0 1 .166-.37.52.52 0 0 1 .264-.168 1.3 1.3 0 0 1 .341-.043q.14 0 .276.02.125.017.244.057v.902c-.006.275.025.55.095.816.049.19.145.366.279.513.119.128.273.22.445.266q.291.075.593.072c.239.011.477-.039.689-.146a.53.53 0 0 0 .194-.206.5.5 0 0 0 .058-.272.5.5 0 0 0-.039-.195.7.7 0 0 0-.098-.166 1 1 0 0 0-.142-.143l-.166-.138a1.1 1.1 0 0 1 .451-.753.8.8 0 0 1 .27-.126c.24.142.501.25.774.318.307.077.624.114.94.111h.11c.11.148.162.329.146.51a.9.9 0 0 1-.044.287.7.7 0 0 1-.095.206h-.392a2 2 0 0 1-.368-.046 1 1 0 0 1-.148-.046.8.8 0 0 1 .062.232q.017.132.018.264"/><path fill="#038b45" d="M57.4 5.745c.14.01.28-.03.393-.109a.36.36 0 0 0 .133-.257.35.35 0 0 0-.104-.27 1.7 1.7 0 0 0-.397-.223l-1.43-.61a.6.6 0 0 1-.08-.247 2 2 0 0 1-.03-.312v-.2q.012-.095.035-.186l2.573-1.527a.8.8 0 0 1 .21.118 1.05 1.05 0 0 1 .306.398q.046.115.048.237a.4.4 0 0 1-.063.235.6.6 0 0 1-.246.186l-1.442.713.54.218q.282.113.543.238.246.114.454.286c.14.116.25.26.325.422s.112.337.108.515c0 .186-.037.371-.11.544a1.15 1.15 0 0 1-.332.43 1.6 1.6 0 0 1-.564.286q-.391.106-.798.1h-1.727a.7.7 0 0 1-.228-.26.8.8 0 0 1-.086-.376q0-.179.05-.352zm8.309 0c.11.148.161.328.145.51a1 1 0 0 1-.041.286.8.8 0 0 1-.095.206h-.255c-.274.01-.546-.03-.805-.117a1.14 1.14 0 0 1-.48-.341.57.57 0 0 1-.184.326.64.64 0 0 1-.445.132 7 7 0 0 1-1.211-.109 4.8 4.8 0 0 1-1.015-.286q-.115-.001-.136.083a2 2 0 0 0-.024.367v2.022a1.7 1.7 0 0 1-.834.068.7.7 0 0 1-.243-.08.46.46 0 0 1-.17-.163.5.5 0 0 1-.062-.27V6.808q-.008-.383.077-.756c.038-.17.12-.33.24-.46a.84.84 0 0 1 .413-.23q.293-.065.594-.06.267-.458.486-.799.193-.305.44-.573c.133-.14.293-.254.471-.335a1.5 1.5 0 0 1 .594-.109 1.7 1.7 0 0 1 .534.078c.157.053.299.14.415.254q.211.209.356.464.195.347.35.71.12.3.297.573.048.091.137.146a.4.4 0 0 0 .196.058zm-1.86-.026a7 7 0 0 0-.214-.61 3 3 0 0 0-.181-.37.6.6 0 0 0-.146-.183.2.2 0 0 0-.11-.048.25.25 0 0 0-.148.086 1.5 1.5 0 0 0-.193.24q-.114.17-.204.352a4 4 0 0 0-.182.419q.22.063.446.091.254.038.51.037h.214l.201-.014z"/><path fill="#038b45" d="M65.659 8.245a.6.6 0 0 1-.422-.155.54.54 0 0 1 0-.77.65.65 0 0 1 .837 0 .51.51 0 0 1 .163.39.5.5 0 0 1-.154.38.56.56 0 0 1-.424.155m.154-2.5a.7.7 0 0 0 .333-.062.7.7 0 0 0 .26-.21c.15-.224.222-.488.208-.753 0-.241 0-.453-.015-.636-.014-.184-.02-.33-.03-.444a2.5 2.5 0 0 1 .573-.069q.161-.001.318.034a.5.5 0 0 1 .25.158.9.9 0 0 1 .16.352q.06.303.053.61a2.03 2.03 0 0 1-.514 1.487c-.187.178-.41.316-.656.406s-.508.129-.77.115h-.298a.7.7 0 0 1-.225-.26.8.8 0 0 1-.09-.376q.001-.18.051-.352zm1.226 2.5a.6.6 0 0 1-.425-.155.5.5 0 0 1-.16-.38.49.49 0 0 1 .17-.39.6.6 0 0 1 .415-.152.6.6 0 0 1 .418.152.52.52 0 0 1 .166.39.5.5 0 0 1-.154.38.57.57 0 0 1-.43.155m.774-.802a1 1 0 0 0 .097 0h.084a.98.98 0 0 0 .792-.318c.213-.3.313-.662.282-1.025 0-.218 0-.435-.015-.656-.015-.22-.024-.43-.039-.63a11 11 0 0 0-.106-.954 1.3 1.3 0 0 1 .605-.149q.166-.002.326.043a.5.5 0 0 1 .238.158.9.9 0 0 1 .157.32q.068.263.089.53.021.232.033.45c.009.146 0 .287.017.45q.147.039.297.057.148.02.297.02h.11a.6.6 0 0 1 .1.212 1.16 1.16 0 0 1-.002.573.7.7 0 0 1-.092.206h-.033a2 2 0 0 1-.383-.032 2 2 0 0 1-.317-.083 2.6 2.6 0 0 1-.238.888 1.75 1.75 0 0 1-.442.573 1.6 1.6 0 0 1-.593.312 2.4 2.4 0 0 1-.674.095.78.78 0 0 1-.507-.144.57.57 0 0 1-.178-.455q0-.108.02-.215.025-.116.075-.226"/><path fill="#038b45" d="M72.16 6.386a.85.85 0 0 1-.355.244c-.243.08-.499.115-.754.103a.7.7 0 0 1-.226-.26.8.8 0 0 1-.086-.376q-.001-.18.05-.352h.197a.65.65 0 0 0 .296-.063.55.55 0 0 0 .223-.224c.178-.286.344-.572.495-.822q.2-.332.457-.627.211-.24.493-.398c.182-.094.386-.142.593-.14q.24-.002.472.057c.137.036.266.098.377.183q.181.143.315.33.17.238.296.501.175.36.297.739a2.4 2.4 0 0 1 .122.704.64.64 0 0 1-.063.287.6.6 0 0 1-.231.24q-.214.122-.457.17-.373.068-.754.062-.24 0-.48-.026a5 5 0 0 1-.912-.18 2 2 0 0 1-.365-.152m1.425-1.878a.22.22 0 0 0-.134.051q-.095.091-.166.2-.11.165-.231.353c-.08.126-.16.286-.244.438q.092.042.19.066.116.03.25.057l.273.04q.13.02.264.02a.8.8 0 0 0 .276-.034.1.1 0 0 0 .06-.036.1.1 0 0 0 .023-.064 1 1 0 0 0-.021-.158 2 2 0 0 0-.062-.206 4 4 0 0 0-.187-.432 1 1 0 0 0-.146-.227.2.2 0 0 0-.145-.068"/></g><g clip-path="url(#b)"><path fill="#c8c8c8" d="M256.507 20.202a6 6 0 0 1-1.831-4.264 6 6 0 0 1 1.757-4.295 5.997 5.997 0 0 1 8.558.075 5.998 5.998 0 0 1-4.264 10.168 6 6 0 0 1-4.22-1.684m3.642-7.242v3.6h1.2v-3.6zm0 4.8v1.2h1.2v-1.2z"/></g><defs><clipPath id="a"><path fill="#fff" d="M0 0h94v39H0z"/></clipPath><clipPath id="b"><path fill="#fff" d="M254.749 9.96h12v12h-12z"/></clipPath></defs></svg>