<svg xmlns="http://www.w3.org/2000/svg" width="119" height="39" fill="none" viewBox="0 0 119 39"><g filter="url(#a)"><path fill="#fff" d="M2 6.73c.292-.026.588-.08.88-.08 3.21 0 6.424-.086 9.631.03 5.342.192 9.4 2.455 11.993 6.774 1.685 2.808 2.118 5.849 1.681 9.008-.284 2.446-1.27 4.778-2.86 6.757-2.64 3.21-6.132 4.968-10.533 5.104-3.437.093-6.882.05-10.327.07H2v-.206c.13-.556.289-1.102.386-1.656.354-2.34.507-4.702.458-7.064V13.85a31 31 0 0 0-.155-3.448c-.144-1.186-.447-2.351-.682-3.527zm5.01 13.732v10.764c0 .418-.032.832 0 1.249.033.417.184.56.628.556 1.443 0 2.886 0 4.328-.066 2.064-.09 4.026-.849 5.537-2.143 1.76-1.497 2.81-3.381 3.448-5.475.654-2.318.83-4.727.52-7.104a13 13 0 0 0-1.88-5.604c-1.803-2.898-4.458-4.515-8.151-4.564-1.216-.017-2.431-.03-3.647-.053-.721 0-.783.02-.783.679zm26.53 14.226c-.595-.103-1.193-.176-1.778-.315-2.47-.6-4.058-2.024-4.49-4.355-.459-2.458.472-4.435 2.817-5.744.872-.431 1.78-.799 2.716-1.1.245-.073.503-.105.76-.095h4.506c.476 0 .949.086 1.425.096.249 0 .497-.096.746-.096h3.968v7.177a6 6 0 0 0 .08 1.063c.169.994.779 1.408 1.872 1.325.176-.017.36-.046.562-.073a1.47 1.47 0 0 1-.501.994c-.355.34-.789.605-1.27.773a3.75 3.75 0 0 1-2.962-.215 3.4 3.4 0 0 1-1.121-.946c-.263-.364-.454-.765-.721-1.189-.127.106-.264.209-.383.331-1.396 1.325-3.04 2.196-5.078 2.352-.033 0-.062.033-.094.05zm6.641-7.151h.025v-2.388c0-.553-.112-.663-.7-.762a8 8 0 0 0-.573-.08c-1.4-.165-2.792-.198-4.137.259-1.804.616-3.128 1.656-3.395 3.53a3.7 3.7 0 0 0 .187 1.767 3.96 3.96 0 0 0 1 1.518 4.4 4.4 0 0 0 1.616.972 4.7 4.7 0 0 0 1.916.235c1.458-.14 2.8-.796 3.74-1.829.178-.184.286-.416.31-.662.033-.848.011-1.706.011-2.56m42.776 7.151a21 21 0 0 1-2.128-.5c-2.587-.892-4.048-2.852-3.986-5.38a4.84 4.84 0 0 1 .56-2.201 5.3 5.3 0 0 1 1.528-1.773 9.15 9.15 0 0 1 3.636-1.68q.302-.067.613-.066h4.31c.542 0 1.083.083 1.624.093.274 0 .548-.093.826-.093h3.841c.022 0 .047.02.116.05v7.353q.005.464.086.92c.018.188.079.37.177.536.098.165.233.31.395.426s.349.198.548.245.406.053.608.023c.206-.017.408-.047.635-.073a.9.9 0 0 1-.044.451.96.96 0 0 1-.263.384c-.262.31-.592.567-.97.753a3.3 3.3 0 0 1-1.219.326c-1.804.172-3.008-.513-3.856-2.16l-.22-.423c-1.073 1.303-2.614 2.216-4.35 2.577-.383.089-.772.145-1.162.218zm6.896-7.125v-2.53c0-.312-.115-.54-.472-.6-1.59-.268-3.192-.387-4.761.086-2.096.63-3.76 2.05-3.564 4.455.098 1.043.639 2.01 1.505 2.69a4.6 4.6 0 0 0 3.126.953c1.484-.127 2.857-.778 3.83-1.815.113-.105.2-.231.258-.369s.084-.285.078-.432c-.003-.828.004-1.636 0-2.438m-35.651 7.124c-.606-.092-1.216-.172-1.804-.278a21.4 21.4 0 0 1-4.4-1.358.77.77 0 0 1-.384-.285.67.67 0 0 1-.122-.44v-3.312a2 2 0 0 1 .148-.52c.603.616 1.133 1.192 1.703 1.732 1.392 1.325 2.918 2.468 4.916 2.925a4.84 4.84 0 0 0 2.302.059 4.6 4.6 0 0 0 2.027-1.003c.309-.269.552-.595.714-.956a2.55 2.55 0 0 0-.09-2.265 2.8 2.8 0 0 0-.787-.906 9.7 9.7 0 0 0-3.051-1.441c-1.833-.606-3.69-1.166-5.41-2.067a5.3 5.3 0 0 1-1.84-1.46q.155-.024.313-.034h8.192q.196-.007.382.044c1.208.392 2.36.914 3.434 1.556a4.9 4.9 0 0 1 1.702 1.718 4.4 4.4 0 0 1 .6 2.257c.047 1.944-.664 3.603-2.482 4.72a9.15 9.15 0 0 1-3.928 1.228c-.126 0-.249.047-.36.07zm62.063-.284c-1.057 0-2.117 0-3.174.04a3.2 3.2 0 0 1-1.476-.24 2.9 2.9 0 0 1-1.154-.877c-.613-.748-1.179-1.53-1.785-2.285a1454 1454 0 0 0-5.137-6.353c-.494-.61-.465-.778.148-1.278 1.483-1.203 2.969-2.405 4.43-3.644a4.26 4.26 0 0 0 1.433-1.918c.274-.75.315-1.555.118-2.324 0-.067 0-.14-.026-.229h6.302c-.238.225-.422.427-.639.6l-7.993 6.336c-.541.424-.552.52-.115 1.05l8.516 10.353c.188.229.361.457.552.686zm-45.982.285a12 12 0 0 1-1.403-.378 4.3 4.3 0 0 1-1.962-1.388 3.77 3.77 0 0 1-.812-2.15c-.144-1.81-.13-3.642-.173-5.448V23.1h4v.414c.025 1.987.08 3.941.065 5.915 0 1.845 1.425 3.156 3.849 2.587.934-.219 1.843-.527 2.788-.802a5.8 5.8 0 0 1-1.389 1.822c-.92.864-2.127 1.426-3.43 1.596a.5.5 0 0 0-.137.057z"/><path fill="#f5bb18" d="M52.871 18.716h4.217v-5.932c0-.304.075-.424.429-.41.646.026 1.295.023 1.94 0 .34 0 .415.109.415.394v5.952c.155 0 .278.016.4.016h4.275c.36 0 .437-.093.433-.4v-6.068h2.55c.072 0 .195.215.198.33v6.046q.134.035.271.046h2.446c.295 0 .382-.103.378-.355 0-1.904 0-3.805-.032-5.706 0-.332.1-.411.44-.404.761.023 1.522 0 2.323 0v6.465h2.86c.072 0 .199-.219.199-.331v-6.124h1.655c1.082 0 1.082 0 1.082.993v7.817c-.155 0-.288.03-.422.03H33.804c-2.774 0-5.162-2.65-4.83-5.194s2.965-4.421 5.772-4.256c.26 0 .378.09.36.331v1.73a11 11 0 0 0-1.107 0 3.2 3.2 0 0 0-1.257.405c-.38.22-.702.516-.94.867-.238.35-.387.745-.436 1.156s.004.825.155 1.215c.134.227.31.432.52.606.59.603 1.316.755 2.203.748 4.52-.036 9.018 0 13.556 0 .58 0 1.161-.04 1.742-.086.382-.042.734-.21.99-.474.258-.263.402-.603.406-.957a1.36 1.36 0 0 0-.381-.945 1.6 1.6 0 0 0-.968-.476 19 19 0 0 0-1.627-.072c-2.02-.024-4.037 0-6.056-.053-2.165-.05-3.297-1.464-3.474-3.153a5.4 5.4 0 0 1 .227-2.402c.108-.343.292-.662.54-.938s.556-.5.903-.662q3.333-1.56 6.662-3.13c.123-.056.25-.102.383-.155 0 .768.018 1.5-.018 2.229 0 .126-.22.278-.361.358-1.746.877-3.503 1.742-5.248 2.613-.873.437-1.212 1.113-.917 1.858.086.265.26.499.497.668s.526.268.827.28c1.421.049 2.846.049 4.267.085 1.201.03 2.406.047 3.607.13 1.804.122 2.807.993 3.16 2.65a5.4 5.4 0 0 1-.029 2.301z"/><path fill="#fff" d="M103.048 34.323h-5.587q.358-1.379.559-2.785c.148-1.557.177-3.127.252-4.69V14.55c0-1.424-.021-2.852-.086-4.273a11.2 11.2 0 0 0-.696-3.312c-.163-.45-.105-.546.407-.612 1.241-.163 2.482-.332 3.726-.47.462-.057.679.138.679.559v16.077c0 2.163 0 4.326.032 6.488a18.3 18.3 0 0 0 .664 4.581q.05.19.079.384a2 2 0 0 0-.029.351"/><path fill="#f5bb18" d="M81.923 15.656V13.32h8.971a3.8 3.8 0 0 1 1.57.274c.492.2.928.504 1.272.885 1.591 1.765 1.05 5.107-1.035 6.353a2 2 0 0 1-.938.275c-3.181.02-6.366 0-9.548 0-.079 0-.155 0-.274-.02 0-.116-.025-.229-.025-.331v-1.64c0-.301.101-.384.422-.38h7.257c.556 0 1.115.02 1.67 0 .225-.015.437-.1.603-.24.757-.698.858-1.506.306-2.172a1.4 1.4 0 0 0-.488-.399 1.5 1.5 0 0 0-.633-.15c-1.06-.02-2.121-.057-3.182-.067-1.836-.02-3.672-.02-5.511-.027zM55.777 7.26a1.5 1.5 0 0 1-.146.615 1.6 1.6 0 0 1-.396.515 1.8 1.8 0 0 1-.584.331 1.9 1.9 0 0 1-.678.096 1.84 1.84 0 0 1-1.248-.429 1.55 1.55 0 0 1-.555-1.112c.01-.43.206-.838.544-1.135s.791-.46 1.26-.451c.23-.008.461.027.678.102.216.076.414.19.582.336s.302.321.395.516c.094.194.144.404.148.616m.82-.01c.004-.212.055-.42.148-.614.094-.194.229-.369.397-.514s.365-.258.581-.332c.217-.075.447-.109.677-.1.233-.005.464.033.68.11.217.079.414.195.582.343s.302.325.395.52c.093.196.142.407.147.62-.01.211-.064.418-.161.61a1.6 1.6 0 0 1-.404.506c-.17.142-.368.253-.585.324a1.9 1.9 0 0 1-.675.093 1.8 1.8 0 0 1-.677-.097 1.7 1.7 0 0 1-.58-.335 1.6 1.6 0 0 1-.39-.518 1.45 1.45 0 0 1-.135-.616m46.852-2.59-1.443.152a.6.6 0 0 1-.213 0 .16.16 0 0 1-.089-.043.14.14 0 0 1-.043-.083.13.13 0 0 1 .021-.09.16.16 0 0 1 .075-.062.6.6 0 0 1 .206-.046l2.886-.305c.133 0 .321-.07.36.126.04.195-.169.179-.303.192-.494.06-.977.11-1.457.159m-7.019.748-1.403.15a1 1 0 0 1-.156 0c-.115 0-.252 0-.245-.136 0-.063.123-.126.199-.18.075-.052.075 0 .111-.016l2.864-.304c.141 0 .34-.073.361.132.022.205-.191.172-.328.189-.469.07-.934.13-1.403.165m4.728-1.765c-.141 0-.249-.102-.209-.199a.6.6 0 0 1 .104-.149l1.851-2.143c.036-.043.068-.099.119-.115a.25.25 0 0 1 .191.016q.032.036.044.08.013.044.006.089a.26.26 0 0 1-.079.123l-1.84 2.126q-.088.09-.187.172m-5.295-1.888c.109.07.21.123.303.19.596.426 1.187.86 1.779 1.29.17.127.342.246.508.372.094.073.177.159.072.275-.104.116-.198.046-.288-.02q-1.222-.885-2.439-1.779a.2.2 0 0 1-.06-.08.2.2 0 0 1-.019-.095c.007-.053.083-.096.144-.153m3.81-.132c.058.447.116.894.17 1.325 0 .05.029.106 0 .142-.03.037-.087.15-.14.156-.055.006-.145-.06-.178-.113a.6.6 0 0 1-.054-.245 439 439 0 0 1-.317-2.5.5.5 0 0 1 0-.212.6.6 0 0 1 .151-.176q.093.076.17.166c.025.033.018.092.025.139zM17.096 22.886a2.26 2.26 0 0 1-1.184-.32 2 2 0 0 1-.789-.871 1.8 1.8 0 0 1-.127-1.127c.08-.379.28-.728.577-1.001.296-.274.675-.461 1.087-.537s.84-.038 1.228.109c.388.148.72.398.954.719s.358.698.357 1.084a1.8 1.8 0 0 1-.152.745 1.9 1.9 0 0 1-.454.633c-.196.181-.43.325-.687.422a2.3 2.3 0 0 1-.81.144"/><path fill="#fff" d="M68.804 8.27c0 .205-.05.407-.144.593-.11.204-.273.38-.476.51-.259.17-.55.292-.859.361a5.5 5.5 0 0 1-1.306.133q-1.611 0-2.442-.72-.83-.718-.83-2.162-.007-.376.073-.745c.03-.155.1-.301.202-.427a.64.64 0 0 1 .321-.196q.204-.051.415-.05.168 0 .335.024.151.021.296.066V6.7a3.3 3.3 0 0 0 .115.944c.06.22.177.423.34.593.144.148.332.255.54.308q.356.087.722.083c.29.013.58-.045.837-.169a.63.63 0 0 0 .237-.238.56.56 0 0 0 .07-.315.5.5 0 0 0-.047-.225.8.8 0 0 0-.12-.192 1 1 0 0 0-.172-.166l-.203-.16q.02-.171.094-.33a1.27 1.27 0 0 1 .455-.54 1 1 0 0 1 .328-.146c.292.165.61.289.941.368q.563.133 1.144.129h.133a.83.83 0 0 1 .177.59 1 1 0 0 1-.054.33.8.8 0 0 1-.115.24h-.476a2.4 2.4 0 0 1-.448-.054 1 1 0 0 1-.18-.053 1 1 0 0 1 .076.268q.02.153.021.305"/><path fill="#fff" d="M71.776 6.657a.77.77 0 0 0 .476-.126.4.4 0 0 0 .115-.133.39.39 0 0 0-.079-.476 2 2 0 0 0-.483-.259l-1.739-.705a.7.7 0 0 1-.097-.285 2 2 0 0 1-.036-.361V4.08q.015-.108.043-.215l3.127-1.766q.14.05.257.136.12.093.216.209.095.116.155.252.055.132.058.275a.47.47 0 0 1-.076.271.76.76 0 0 1-.3.215l-1.752.825.656.252c.227.086.45.179.66.275q.3.133.552.331c.17.134.305.3.396.487.09.188.136.391.13.596a1.5 1.5 0 0 1-.133.63 1.34 1.34 0 0 1-.404.496 2 2 0 0 1-.685.331 3.7 3.7 0 0 1-.97.116h-2.1a.8.8 0 0 1-.278-.301.9.9 0 0 1-.104-.434q0-.208.061-.407zm10.098 0c.134.171.197.38.177.59q.001.168-.05.331a1 1 0 0 1-.116.238h-.31a2.9 2.9 0 0 1-.978-.135 1.4 1.4 0 0 1-.584-.394.65.65 0 0 1-.223.377.8.8 0 0 1-.541.152q-.743 0-1.472-.125a6 6 0 0 1-1.234-.332q-.14-.002-.166.096-.036.211-.029.424v2.339a2.2 2.2 0 0 1-1.013.08.9.9 0 0 1-.296-.094.54.54 0 0 1-.206-.188.56.56 0 0 1-.075-.312V7.886a3.4 3.4 0 0 1 .094-.874c.045-.198.146-.382.292-.534.135-.13.31-.223.501-.265q.356-.075.722-.07c.216-.35.414-.662.591-.923q.235-.353.534-.663a1.8 1.8 0 0 1 .573-.387c.228-.089.474-.132.722-.126.22-.004.44.026.65.09.19.061.362.162.504.294q.256.24.433.537.237.4.425.821.146.347.361.663.059.105.167.168a.5.5 0 0 0 .237.067zm-2.261-.03a8 8 0 0 0-.26-.705 3 3 0 0 0-.22-.427.7.7 0 0 0-.177-.212.23.23 0 0 0-.133-.057.3.3 0 0 0-.18.1 2 2 0 0 0-.235.278q-.138.196-.249.407a5 5 0 0 0-.22.484q.266.073.541.106.31.045.62.043h.26l.246-.017z"/><path fill="#fff" d="M81.814 9.549a.8.8 0 0 1-.276-.041.7.7 0 0 1-.236-.138.6.6 0 0 1-.199-.446.6.6 0 0 1 .199-.445.8.8 0 0 1 .508-.176c.188 0 .368.063.509.176a.6.6 0 0 1 .152.205.55.55 0 0 1 .046.245.6.6 0 0 1-.044.238.6.6 0 0 1-.143.203.7.7 0 0 1-.237.14.7.7 0 0 1-.279.039m.188-2.892a.9.9 0 0 0 .405-.071.8.8 0 0 0 .316-.244 1.38 1.38 0 0 0 .252-.87c0-.279 0-.524-.017-.736-.019-.212-.026-.38-.037-.513a3.2 3.2 0 0 1 .697-.08q.196-.002.386.04c.119.03.225.094.302.182q.145.185.195.407.074.35.065.706a2.28 2.28 0 0 1-.624 1.719c-.227.206-.5.366-.798.47s-.618.149-.937.133h-.36a.8.8 0 0 1-.275-.302.9.9 0 0 1-.108-.434q0-.207.061-.407zm1.49 2.892a.76.76 0 0 1-.517-.18.6.6 0 0 1-.147-.201.6.6 0 0 1-.047-.239.54.54 0 0 1 .049-.246.6.6 0 0 1 .156-.204.76.76 0 0 1 .505-.176.76.76 0 0 1 .509.176.6.6 0 0 1 .153.205.55.55 0 0 1 .049.245.6.6 0 0 1-.045.238.6.6 0 0 1-.143.203.7.7 0 0 1-.24.14.8.8 0 0 1-.283.039m.942-.928a1 1 0 0 0 .12 0h.1c.18.01.36-.018.528-.082a1.2 1.2 0 0 0 .435-.286c.26-.347.38-.766.343-1.185 0-.252 0-.504-.018-.759s-.03-.497-.047-.728a12 12 0 0 0-.13-1.103q.15-.077.318-.12.205-.052.418-.053a1.4 1.4 0 0 1 .397.05.6.6 0 0 1 .288.182 1 1 0 0 1 .191.371q.082.302.109.613c.018.179.028.351.04.52.01.169 0 .331.02.52q.18.045.362.066.18.023.36.023h.134q.089.111.122.245a1.3 1.3 0 0 1-.003.663.7.7 0 0 1-.112.238h-.04q-.234.002-.465-.036a3 3 0 0 1-.386-.096c-.032.355-.13.702-.288 1.027-.128.252-.31.478-.538.662-.21.166-.456.29-.721.361q-.401.11-.82.11a1 1 0 0 1-.616-.166.7.7 0 0 1-.172-.241.6.6 0 0 1-.044-.286q0-.125.025-.248.03-.136.09-.262"/><path fill="#fff" d="M89.717 7.4a1.04 1.04 0 0 1-.433.28 2.6 2.6 0 0 1-.916.12.84.84 0 0 1-.274-.301.9.9 0 0 1-.105-.434q-.001-.208.062-.408h.238a.8.8 0 0 0 .36-.073c.116-.06.21-.15.27-.258.217-.331.42-.662.603-.95q.244-.386.556-.726.255-.278.599-.46c.221-.11.47-.165.721-.162q.292-.003.574.066c.166.041.322.113.458.212q.22.164.382.38.207.277.36.58.215.416.361.855c.092.263.142.538.148.815a.7.7 0 0 1-.075.33.7.7 0 0 1-.282.279c-.172.093-.36.16-.555.195a5 5 0 0 1-.916.073q-.293 0-.585-.03a6 6 0 0 1-1.107-.208 3 3 0 0 1-.444-.176m1.731-2.173a.27.27 0 0 0-.162.06q-.116.104-.202.231-.134.19-.281.407c-.098.146-.195.332-.296.507q.111.048.23.076.142.037.304.067l.332.046q.16.023.32.023.172.008.336-.04a.13.13 0 0 0 .073-.041.1.1 0 0 0 .028-.075 1 1 0 0 0-.025-.182 2 2 0 0 0-.076-.238 5 5 0 0 0-.227-.5 1.2 1.2 0 0 0-.177-.262.2.2 0 0 0-.079-.057.3.3 0 0 0-.098-.022"/></g><defs><filter id="a" width="118.265" height="38.721" x="0" y="0" color-interpolation-filters="sRGB" filterUnits="userSpaceOnUse"><feFlood flood-opacity="0" result="BackgroundImageFix"/><feColorMatrix in="SourceAlpha" result="hardAlpha" values="0 0 0 0 0 0 0 0 0 0 0 0 0 0 0 0 0 0 127 0"/><feOffset dy="2"/><feGaussianBlur stdDeviation="1"/><feComposite in2="hardAlpha" operator="out"/><feColorMatrix values="0 0 0 0 0 0 0 0 0 0 0 0 0 0 0 0 0 0 0.25 0"/><feBlend in2="BackgroundImageFix" result="effect1_dropShadow_8_1947"/><feBlend in="SourceGraphic" in2="effect1_dropShadow_8_1947" result="shape"/></filter></defs></svg>